<svg width="702" height="702" viewBox="0 0 702 702" fill="none" xmlns="http://www.w3.org/2000/svg">
<g clip-path="url(#clip0_172_2)">
<path d="M220.806 510.4C207.886 510.4 196.553 508.02 186.806 503.26C177.286 498.727 169.92 492.04 164.706 483.2C159.72 474.587 157.68 464.273 158.586 452.26L161.986 398.2C162.44 387.773 160.513 380.067 156.206 375.08C151.9 369.867 143.4 367.26 130.706 367.26H91.9464V333.94H130.706C143.4 333.94 151.9 331.447 156.206 326.46C160.513 321.473 162.44 313.653 161.986 303L158.586 248.6C157.906 236.587 160.06 226.273 165.046 217.66C170.033 208.82 177.286 202.133 186.806 197.6C196.326 193.067 207.66 190.8 220.806 190.8H240.186V224.12H223.866C214.573 224.12 207.32 226.273 202.106 230.58C196.893 234.887 194.513 241.573 194.966 250.64L198.366 305.04C199.273 319.093 195.533 330.313 187.146 338.7C178.76 347.087 166.973 351.28 151.786 351.28V349.58C166.746 349.58 178.42 353.887 186.806 362.5C195.42 370.887 199.273 382.107 198.366 396.16L194.966 450.56C194.74 459.173 197.12 465.747 202.106 470.28C207.32 474.813 214.573 477.08 223.866 477.08H240.186V510.4H220.806Z" fill="#FD4B4B"/>
<path d="M352.086 476.4C335.313 476.4 320.92 473.68 308.906 468.24C296.893 462.573 287.6 454.64 281.026 444.44C274.453 434.013 271.166 421.66 271.166 407.38H307.546C307.546 418.713 311.513 427.667 319.446 434.24C327.38 440.587 338.373 443.76 352.426 443.76C365.573 443.76 375.886 440.587 383.366 434.24C390.846 427.893 394.586 419.167 394.586 408.06C394.586 398.767 391.98 390.72 386.766 383.92C381.78 377.12 374.526 372.473 365.006 369.98L333.726 360.8C315.593 355.587 301.54 346.747 291.566 334.28C281.82 321.587 276.946 306.513 276.946 289.06C276.946 275.46 280.006 263.56 286.126 253.36C292.246 243.16 300.973 235.227 312.306 229.56C323.64 223.893 337.013 221.06 352.426 221.06C375.093 221.06 393.226 227.18 406.826 239.42C420.653 251.66 427.68 268.093 427.906 288.72H391.186C391.186 277.84 387.673 269.34 380.646 263.22C373.846 256.873 364.213 253.7 351.746 253.7C339.733 253.7 330.326 256.647 323.526 262.54C316.726 268.207 313.326 276.253 313.326 286.68C313.326 295.973 315.82 304.02 320.806 310.82C326.02 317.62 333.386 322.38 342.906 325.1L374.526 334.62C392.66 339.607 406.6 348.447 416.346 361.14C426.093 373.833 430.966 389.02 430.966 406.7C430.966 420.527 427.68 432.767 421.106 443.42C414.533 453.847 405.353 462.007 393.566 467.9C381.78 473.567 367.953 476.4 352.086 476.4Z" fill="#FD4B4B"/>
<path d="M461.946 510.4V477.08H478.266C487.56 477.08 494.813 474.813 500.026 470.28C505.24 465.747 507.62 459.173 507.166 450.56L503.766 396.16C502.86 382.107 506.6 370.887 514.986 362.5C523.6 353.887 535.386 349.58 550.346 349.58V351.28C535.16 351.28 523.373 347.087 514.986 338.7C506.6 330.313 502.86 319.093 503.766 305.04L507.166 250.64C507.62 241.573 505.24 234.887 500.026 230.58C495.04 226.273 487.786 224.12 478.266 224.12H461.946V190.8H481.326C494.473 190.8 505.806 193.067 515.326 197.6C524.846 202.133 532.1 208.82 537.086 217.66C542.3 226.273 544.453 236.587 543.546 248.6L540.146 303C539.693 313.653 541.62 321.473 545.926 326.46C550.46 331.447 558.96 333.94 571.426 333.94H610.186V367.26H571.426C558.96 367.26 550.46 369.867 545.926 375.08C541.62 380.067 539.693 387.773 540.146 398.2L543.546 452.26C544.453 464.273 542.3 474.587 537.086 483.2C532.1 492.04 524.846 498.727 515.326 503.26C505.806 508.02 494.473 510.4 481.326 510.4H461.946Z" fill="#FD4B4B"/>
</g>
<defs>
<clipPath id="clip0_172_2">
<rect width="702" height="702" fill="white"/>
</clipPath>
</defs>
</svg>
